# xmcd CD database file
#
# Track frame offsets:
#	150
#	13774
#	26850
#	46205
#	60689
#	76872
#	87534
#	102546
#	116006
#	126896
#
# Disc length: 1900 seconds
#
# Revision: 1
# Processed by: cddbd v1.5.2PL0 Copyright (c) Steve Scherf et al.
# Submitted via: CDex 1.70beta2
#
DISCID=84076a0a
DTITLE=Jack Saeuberli - Klezmer for Brass'n'Wood
DYEAR=2006
DGENRE=New Age
TTITLE0=Frejlech Sol Sajn
TTITLE1=Kolomejke
TTITLE2=Klezmer Tunes
TTITLE3=Frejlach Tantz
TTITLE4=Papirosn
TTITLE5=Sibn-Ferzik
TTITLE6=Hawdala
TTITLE7=Hopkele
TTITLE8=Husidl
TTITLE9=Zwei Nigunim and Frejlach
EXTD=YEAR: 2006
EXTT0=
EXTT1=
EXTT2=
EXTT3=
EXTT4=
EXTT5=
EXTT6=
EXTT7=
EXTT8=
EXTT9=
PLAYORDER=
